PathFileType	4	(X/Y/Z)	D:\Research_projects\MuscleProsody\BulkSports2Dtrack\RetrackedSports2D\p1_sample60_cam2\p1_sample60_cam2_Sports2D\p1_sample60_cam2_Sports2D_m_person00.trc
DataRate	CameraRate	NumFrames	NumMarkers	Units	OrigDataRate	OrigDataStartFrame	OrigNumFrames
60	60	9	22	m	60	292	780
Frame#	Time	Hip			RHip			RKnee			RAnkle			RBigToe			RSmallToe			RHeel			LHip			LKnee			LAnkle			LBigToe			LSmallToe			LHeel			Neck			Head			Nose			RShoulder			RElbow			RWrist			LShoulder			LElbow			LWrist		
		X1	Y1	Z1	X2	Y2	Z2	X3	Y3	Z3	X4	Y4	Z4	X5	Y5	Z5	X6	Y6	Z6	X7	Y7	Z7	X8	Y8	Z8	X9	Y9	Z9	X10	Y10	Z10	X11	Y11	Z11	X12	Y12	Z12	X13	Y13	Z13	X14	Y14	Z14	X15	Y15	Z15	X16	Y16	Z16	X17	Y17	Z17	X18	Y18	Z18	X19	Y19	Z19	X20	Y20	Z20	X21	Y21	Z21	X22	Y22	Z22
292	4.866666666666666	0.8299191352828874	0.8736515738662048	0.0301	0.733243448228445	0.8548996181180885	0.0301	0.7374215637132282	0.45460085984423687	0.129	0.753020027606543	0.12079789948686999	0.023	0.7643847551913328	-0.003545985700971566	0.2179	0.6993230781693711	0.011693000562110615	0.1804	0.7654967529776588	0.08854814490866508	-0.0119	0.9273170975277216	0.8555552403075067	0.0301	0.9155466081941427	0.4580955631514181	0.129	0.9169350641309415	0.11941130581581114	0.023	0.9139188537745436	-0.00231647086126394	0.2179	0.9707144028689532	0.013799951796468035	0.1804	0.9073176701545611	0.08927293888158876	-0.0119	0.8346892645601451	1.4911750929523808	0.0008	0.8209873452747587	1.781249437938421	0.0655	0.7886890802350647	1.614490127567834	0.1076	0.6622553735167748	1.4108716738108193	-0.01275	0.46883179501702577	1.287343395203727	0.0702	0.20866894650531229	1.2595200591097155	0.1076	1.0230054057149423	1.4093308465513386	-0.01275	1.2424499591406888	1.2822005557004343	0.0702	1.4943832977735627	1.2064284730631725	0.1076
293	4.883333333333333	0.8300656841813442	0.874536935679529	0.0301	0.7337208005504986	0.8543442522399649	0.0301	0.7376286727121907	0.4543127667833688	0.129	0.7531301170163355	0.1205627141104389	0.023	0.764643827110678	-0.003225448405695034	0.2179	0.6991898102928024	0.011501506240726283	0.1804	0.7651018081082751	0.08911975266634858	-0.0119	0.9275045997111325	0.8550846508745354	0.0301	0.9158528883079403	0.45811789898412975	0.129	0.9171035487388545	0.11897842522399993	0.023	0.9138792892997224	-0.002303982365105755	0.2179	0.9708386888299009	0.013912136880004932	0.1804	0.9072778171126284	0.08910423272413266	-0.0119	0.8351181432844338	1.4915468031856416	0.0008	0.8223929173602161	1.780050505735249	0.0655	0.7895850592424496	1.615098378766828	0.1076	0.6600892599790491	1.4129122435187238	-0.01275	0.4519375453032716	1.305286509208188	0.0702	0.1869448299693212	1.3046925794136741	0.1076	1.0247605515259552	1.41062107363126	-0.01275	1.2561682539251708	1.2981512140032057	0.0702	1.5122308877333768	1.2495817231381163	0.1076
294	4.9	0.830145517765901	0.8753911417564659	0.0301	0.7341019973633368	0.8537363172442921	0.0301	0.7378415953176666	0.4538778911708164	0.129	0.7531846476328162	0.120363826946012	0.023	0.7648907109952127	-0.002961205721871911	0.2179	0.6991084204775591	0.011298726826242774	0.1804	0.7647328823545293	0.08973670346171252	-0.0119	0.9276398164648771	0.8545418216026728	0.0301	0.9161224357909825	0.4578522167292108	0.129	0.9173433648532023	0.11857083158967233	0.023	0.9138031466871026	-0.0024029828574171452	0.2179	0.9709993846260515	0.013975143060006261	0.1804	0.907267267003963	0.08903870150339077	-0.0119	0.8357237180869113	1.491933395512775	0.0008	0.8239860601946335	1.7787415520080136	0.0655	0.7906775414129614	1.6158571280633234	0.1076	0.6579025444610127	1.4149165862043842	-0.01275	0.43622777367127746	1.3225400966531804	0.0702	0.16954856976389895	1.348565748328151	0.1076	1.0266951561349151	1.411665997701602	-0.01275	1.2685741352383464	1.3130483008115907	0.0702	1.5254407242141916	1.2925838437675143	0.1076
295	4.916666666666667	0.8301349363423011	0.8761562195122309	0.0301	0.7343305426271447	0.8531229129670039	0.0301	0.7380439728635952	0.4532830531348347	0.129	0.7532092525204049	0.12014812426136272	0.023	0.7650754998923605	-0.002765861231584211	0.2179	0.6990751158458597	0.011093865317908761	0.1804	0.7644199762025765	0.09030746018033524	-0.0119	0.9277024483175481	0.8539680533620416	0.0301	0.9163457995958916	0.45730100336038515	0.129	0.9176391306782454	0.11820671344923857	0.023	0.9136922796426162	-0.0026088122706024426	0.2179	0.971179181725017	0.013977734192236916	0.1804	0.9072971626854897	0.08904735706381446	-0.0119	0.8364987625136517	1.492288753806651	0.0008	0.8257327895749041	1.7773683392840665	0.0655	0.791995963742712	1.6167225828855065	0.1076	0.6558767807175407	1.4168977887157679	-0.01275	0.4223654863861154	1.3388628712805388	0.0702	0.15743819081595115	1.390380450484584	0.1076	1.0286855115286944	1.4124980327682328	-0.01275	1.27915906440703	1.3267641470001004	0.0702	1.5334308969024328	1.3349404211864417	0.1076
296	4.933333333333334	0.8300247006574342	0.8767829126883414	0.0301	0.7343642258295887	0.8525816963956043	0.0301	0.7382088296633199	0.45254590198490385	0.129	0.7532228320150387	0.11988316663475851	0.023	0.7651524288659499	-0.002642583956299914	0.2179	0.699088846647858	0.01090993292382875	0.1804	0.7642007104442459	0.09077375606017553	-0.0119	0.9276780027023716	0.8534324352028021	0.0301	0.9165089696992539	0.4565019477026253	0.129	0.917975853107716	0.11789684892351743	0.023	0.9135599921135338	-0.0029135806061122704	0.2179	0.9713686607326096	0.013918895953259257	0.1804	0.9073691066369217	0.08910724498086046	-0.0119	0.8374211887123975	1.4925919605164448	0.0008	0.8276005525100054	1.775986537500374	0.0655	0.7935615268068054	1.6176365760497582	0.1076	0.6542193398509336	1.418860005387299	-0.01275	0.4109622900111748	1.3539380736968993	0.0702	0.15144094454171067	1.429260604491658	0.1076	1.0305683110310393	1.4131517112829313	-0.01275	1.2873867524558078	1.3390974407803091	0.0702	1.5356242746322137	1.3759267114640148	0.1076
297	4.95	0.8298121992097035	0.87724093833279	0.0301	0.7341820546331606	0.852196285837157	0.0301	0.7383115732056309	0.45170304168629605	0.129	0.7532323746544932	0.11954051532085573	0.023	0.7650945316177457	-0.0025965549252078093	0.2179	0.6991496259900974	0.01076700263663229	0.1804	0.7641057584274238	0.09108530672085752	-0.0119	0.9275623977412648	0.8530239791646218	0.0301	0.9166045863892615	0.4555118280396648	0.129	0.9183340282634419	0.11763209725444304	0.023	0.9134398569077327	-0.003300315088197171	0.2179	0.9715726555403589	0.013806521000705865	0.1804	0.9074713402732058	0.08920265660934326	-0.0119	0.8384445888575609	1.4928413278402286	0.0008	0.8295564182519414	1.7746638803484371	0.0655	0.7953764030864443	1.6185386916199638	0.1076	0.6531262789176757	1.4207793426266269	-0.01275	0.40251402288491317	1.3673750186879803	0.0702	0.15217525344262314	1.464256675755714	0.1076	1.032153704610844	1.413660159829657	-0.01275	1.2927499654759886	1.3497512913908951	0.0702	1.531511884469729	1.414592099402053	0.1076
298	4.966666666666667	0.8294964187815019	0.8775214059415511	0.0301	0.7337916806762852	0.8520230494987683	0.0301	0.7383448579620031	0.45079897374854055	0.129	0.7532396832829488	0.11909149408597836	0.023	0.7648913273147071	-0.0026402214340213973	0.2179	0.6992542014537494	0.010672310817492515	0.1804	0.7641526735791772	0.09117850080850119	-0.0119	0.9273622432676638	0.8528173488261876	0.0301	0.9166435561333561	0.4543959056496265	0.129	0.9186834764606253	0.11738818718581548	0.023	0.9133830082812391	-0.003744874000547716	0.2179	0.9718091334446362	0.013649265655661012	0.1804	0.9075838319736474	0.08931360714532617	-0.0119	0.8395013517764894	1.4930419420923355	0.0008	0.8315601267006363	1.7734700161824237	0.0655	0.7974105808559863	1.6193870412142428	0.1076	0.6527553662797541	1.4225978442273595	-0.01275	0.3973643040388504	1.3787402545548098	0.0702	0.15999914502701076	1.4943978156627913	0.1076	1.0332357787194115	1.4140503952705463	-0.01275	1.2948054207918465	1.3583407719699798	0.0702	1.5207035121731005	1.4497931725356275	0.1076
299	4.983333333333333	0.8290889504269365	0.8776269885869596	0.0301	0.7332335757478331	0.8520615182758088	0.0301	0.738322243874066	0.4498856105037701	0.129	0.7532378991251542	0.11855191397537204	0.023	0.7645524781400124	-0.002781444182864657	0.2179	0.6993943432033951	0.010628437041696834	0.1804	0.7643447178579034	0.09102251304263331	-0.0119	0.9270949908560715	0.8528249945458052	0.0301	0.9166496077894296	0.45322861321536356	0.129	0.9189885414485708	0.11715768120816704	0.023	0.9134351733598269	-0.004218865669306652	0.2179	0.9720966966439104	0.013456809684049784	0.1804	0.9076775298767302	0.08941948750255377	-0.0119	0.8405251837311897	1.4931989338581864	0.0008	0.8335631573456622	1.7724476484277654	0.0655	0.7995964335756355	1.6201765694096248	0.1076	0.6532077556827244	1.4242374763269092	-0.01275	0.3956998624808739	1.3875990436611625	0.0702	0.17499689710422556	1.518740801401736	0.1076	1.0336279347875346	1.4143315947521435	-0.01275	1.2932077814933003	1.3644371244888076	0.0702	1.5029692205782499	1.4802857024412093	0.1076
300	5.0	0.8286244140465039	0.8775646304049063	0.0301	0.7325744906317239	0.8522550349431693	0.0301	0.7382713417684641	0.4490220171264473	0.129	0.7532077632347077	0.11800530809996929	0.023	0.7641208359645941	-0.003007304619732019	0.2179	0.699563765311846	0.010639067701009959	0.1804	0.7646627033277185	0.09065908419698991	-0.0119	0.9267869399391923	0.8529838528186576	0.0301	0.9166403812864925	0.4520914546114229	0.129	0.919222057551391	0.11696429427129515	0.023	0.9136147610431001	-0.004684707834155184	0.2179	0.9724403368924052	0.013242302777075271	0.1804	0.9077162642816601	0.08949898392283541	-0.0119	0.8414657859936341	1.4933185061510807	0.0008	0.8355144377417293	1.771596626704162	0.0655	0.8018374286759542	1.620932847214343	0.1076	0.6545063159151058	1.4256134434227186	-0.01275	0.3975578012234228	1.3935489397884488	0.0702	0.19699351731103934	1.5364207905062746	0.1076	1.0332164387962255	1.4144882197953752	-0.01275	1.287763218096538	1.3676358835752167	0.0702	1.478322120016915	1.5048858269619843	0.1076
